<svg width="26" height="26" viewBox="0 0 26 26" fill="none" xmlns="http://www.w3.org/2000/svg">
<path fill-rule="evenodd" clip-rule="evenodd" d="M16.3333 23.6667V16.3333C16.3333 15.597 15.7364 15 15 15H11C10.2636 15 9.66667 15.597 9.66667 16.3333V23.6667C9.66667 24.4031 9.06971 25 8.33333 25H3C1.89543 25 1 24.1046 1 23V10.9665C0.999997 10.1461 1.37761 9.37135 2.02381 8.86593L11.3571 1.56617C12.3223 0.811276 13.6777 0.811276 14.6429 1.56617L23.9762 8.86591C24.6224 9.37133 25 10.1461 25 10.9664V23C25 24.1046 24.1046 25 23 25H17.6667C16.9303 25 16.3333 24.4031 16.3333 23.6667Z" stroke="black" stroke-width="1.5" stroke-linecap="round" stroke-linejoin="round"/>
</svg>
